<svg xmlns="http://www.w3.org/2000/svg" xmlns:xlink="http://www.w3.org/1999/xlink" version="1.1" x="0px" y="0px" viewBox="0 0 100 125" style="enable-background:new 0 0 100 100;" xml:space="preserve"><path d="M95.6,4.7H4.4c-2.2,0-4,1.8-4,4v61.1c0,2.2,1.8,4,4,4h36v10h-5c-3.4,0-6.2,2.8-6.2,6.2v5.3h41.5V90c0-3.4-2.8-6.2-6.2-6.2  h-5v-10h36c2.2,0,4-1.8,4-4V8.7C99.7,6.5,97.9,4.7,95.6,4.7z M64.6,86c2.2,0,4,1.8,4,4v3.1H31.4V90c0-2.2,1.8-4,4-4H64.6z   M42.6,83.8v-10h14.8v10H42.6z M97.5,69.8c0,1-0.8,1.8-1.8,1.8H4.4c-1,0-1.8-0.8-1.8-1.8v-6.7h94.9V69.8z M97.5,60.9H2.5V8.7  c0-1,0.8-1.8,1.8-1.8h91.3c1,0,1.8,0.8,1.8,1.8V60.9z M52.8,22.9c0.1-2.8-3.5-4.4-5.5-2.5l-13.6-7.8c0.5-2-1.2-4-3.3-4  c-2,0-3.7,1.9-3.3,4l-13.6,7.8c-4.2-3.2-8.1,3.7-3.3,5.7v15.7c-4.9,2-0.9,8.9,3.3,5.6l13.6,7.8c-0.5,2,1.2,4,3.3,4  c2,0,3.7-1.9,3.3-4l13.6-7.8c4.2,3.3,8.2-3.6,3.3-5.6V26.1C51.9,25.6,52.8,24.4,52.8,22.9z M30.5,10.8c1.9,0.1,1.2,2.9-0.6,2.1  C28.9,12.4,29.3,10.8,30.5,10.8z M14.7,22.3l13.5-7.8c1.2,1.1,3.1,1.1,4.4,0l13.5,7.8c-0.1,0.4-0.1,0.9,0,1.3l-13.5,7.8  c-1.2-1.1-3.2-1.1-4.4,0l-13.5-7.8C14.8,23.1,14.8,22.7,14.7,22.3z M31.6,33.9c0,1.5-2.3,1.5-2.3,0C29.3,32.4,31.6,32.4,31.6,33.9z   M10.3,22.9c0-1.5,2.3-1.5,2.3,0C12.6,24.4,10.3,24.4,10.3,22.9z M12.5,45.5c-0.5,1-2.2,0.6-2.1-0.6C10.4,43,13.3,43.7,12.5,45.5z   M28.3,53.3l-13.5-7.8c0.3-1.6-0.7-3.2-2.2-3.8V26.1c0.4-0.1,0.8-0.4,1.1-0.6c2.9,1.7,10.8,6.2,13.5,7.8c-0.3,1.6,0.7,3.3,2.2,3.8  v15.6C29,52.8,28.6,53,28.3,53.3z M30.5,57c-1.5,0-1.5-2.3,0-2.3C32,54.7,32,57,30.5,57z M46.2,45.5l-13.5,7.8  c-0.3-0.3-0.7-0.5-1.1-0.6V37.1c1.5-0.5,2.5-2.2,2.2-3.8l13.5-7.8c0.3,0.3,0.7,0.5,1.1,0.6v15.7C46.9,42.3,45.9,43.9,46.2,45.5z   M50.6,44.9c0,1.5-2.3,1.5-2.3,0C48.4,43.4,50.6,43.4,50.6,44.9z M49.5,24.1c-1.5,0-1.5-2.3,0-2.3C51,21.8,51,24,49.5,24.1z   M31.6,27.3v1.6c0,1.4-2.2,1.4-2.2,0c0,0,0-1.6,0-1.6C29.4,25.9,31.6,25.9,31.6,27.3z M29.4,18.5V17c0-1.4,2.2-1.4,2.2,0  c0,0,0,1.6,0,1.6C31.6,20,29.4,20,29.4,18.5z M18,21.8h1.6c1.4,0,1.4,2.2,0,2.2H18C16.6,24,16.6,21.8,18,21.8z M35.1,21.8h3.1  c0.6,0,1.1,0.5,1.1,1.1S38.8,24,38.2,24h-3.1C33.7,24,33.7,21.8,35.1,21.8z M22.7,21.8h3.1c0.6,0,1.1,0.5,1.1,1.1S26.4,24,25.8,24  h-3.1C21.3,24,21.3,21.8,22.7,21.8z M28.9,21.8h0.5c-0.2-1.9,2.4-1.9,2.2,0c2.1-0.3,2.1,2.5,0,2.2c0.2,1.9-2.4,1.9-2.2,0h-0.5  C27.5,24,27.5,21.8,28.9,21.8z M41.3,21.8h1.6c1.4,0,1.4,2.2,0,2.2h-1.6C39.9,24,39.9,21.8,41.3,21.8z M88.3,18.5H75  c-1.1,0-2,0.9-2,2v5c0,1.1,0.9,2,2,2h13.3c1.1,0,2-0.9,2-2v-5C90.3,19.4,89.4,18.5,88.3,18.5z M88.1,25.3H75.2v-4.7h12.9V25.3z   M89.2,34.7H72.2c-1.4,0-1.4-2.2,0-2.2h17.1C90.7,32.5,90.7,34.7,89.2,34.7z M89.2,49.3H55.7c-1.4,0-1.4-2.2,0-2.2h33.5  C90.7,47.1,90.7,49.3,89.2,49.3z M89.2,42.1H66.7c-1.4,0-1.4-2.2,0-2.2h22.6C90.7,39.9,90.7,42.1,89.2,42.1z"/><text x="0" y="115" fill="#000000" font-size="5px" font-weight="bold" font-family="'Helvetica Neue', Helvetica, Arial-Unicode, Arial, Sans-serif">Created by karyative</text><text x="0" y="120" fill="#000000" font-size="5px" font-weight="bold" font-family="'Helvetica Neue', Helvetica, Arial-Unicode, Arial, Sans-serif">from the Noun Project</text></svg>