<?xml version="1.0" standalone="no"?>
<!DOCTYPE svg PUBLIC "-//W3C//DTD SVG 20010904//EN"
 "http://www.w3.org/TR/2001/REC-SVG-20010904/DTD/svg10.dtd">
<svg version="1.0" xmlns="http://www.w3.org/2000/svg"
 width="128.000000pt" height="128.000000pt" viewBox="0 0 128.000000 128.000000"
 preserveAspectRatio="xMidYMid meet">

<g transform="translate(0.000000,128.000000) scale(0.100000,-0.100000)"
fill="#000000" stroke="none">
<path d="M43 1146 l-28 -24 -3 -364 c-2 -199 0 -378 3 -396 3 -18 15 -42 26
-53 18 -18 34 -19 244 -19 124 0 225 -3 225 -6 0 -3 -8 -19 -17 -35 -15 -25
-23 -29 -61 -29 -37 0 -50 -6 -78 -34 -19 -19 -34 -43 -34 -55 0 -21 2 -21
320 -21 318 0 320 0 320 21 0 12 -15 36 -34 55 -28 28 -41 34 -78 34 -38 0
-46 4 -61 29 -9 16 -17 32 -17 35 0 3 101 6 225 6 210 0 226 1 244 19 11 11
23 35 26 53 3 18 5 197 3 396 l-3 364 -28 24 -28 24 -569 0 -569 0 -28 -24z
m1181 -24 c15 -17 16 -52 14 -343 l-3 -324 -595 0 -595 0 -3 324 c-2 291 -1
326 14 343 16 17 46 18 584 18 538 0 568 -1 584 -18z m-704 -727 l5 -30 115 0
115 0 5 30 5 30 235 0 235 0 3 -32 c2 -18 -2 -41 -8 -53 -11 -20 -17 -20 -590
-20 -562 0 -580 1 -590 19 -11 22 -14 74 -3 85 4 3 110 5 237 4 l231 -3 5 -30z
m218 13 c3 -16 -7 -18 -97 -18 -78 0 -101 3 -101 13 0 25 13 28 104 25 77 -3
91 -6 94 -20z m10 -143 c7 -14 12 -30 12 -35 0 -6 -51 -10 -120 -10 -69 0
-120 4 -120 10 0 5 5 21 12 35 11 24 14 25 108 25 94 0 97 -1 108 -25z m159
-97 l28 -28 -294 0 -294 0 22 24 c13 14 33 27 45 29 11 2 121 4 243 3 l223 -1
27 -27z"/>
<path d="M148 1035 c-23 -31 -23 -39 2 -32 19 5 20 0 20 -149 0 -147 -1 -154
-20 -154 -27 0 -25 -12 5 -40 l25 -23 25 23 c30 28 32 44 5 37 -19 -5 -20 0
-20 153 0 153 1 158 20 153 25 -7 25 5 1 35 -24 28 -42 28 -63 -3z"/>
<path d="M393 1012 l-93 -47 0 -112 0 -112 98 -51 97 -51 95 48 95 48 3 115 2
115 -89 48 c-49 26 -95 47 -102 46 -8 0 -56 -21 -106 -47z m185 -20 l73 -38
-67 -48 c-36 -26 -72 -50 -79 -52 -13 -5 -154 84 -155 98 0 9 129 77 145 77 6
0 43 -17 83 -37z m-165 -123 l67 -49 0 -70 0 -70 -75 37 -75 37 0 83 c0 46 3
83 8 83 4 -1 37 -23 75 -51z m247 -32 l0 -83 -75 -37 -75 -37 0 69 0 70 72 50
c40 28 73 51 75 51 2 0 3 -37 3 -83z"/>
<path d="M853 998 c3 -10 41 -13 147 -13 106 0 144 3 148 13 3 9 -31 12 -148
12 -117 0 -151 -3 -147 -12z"/>
<path d="M850 915 c0 -13 22 -15 151 -15 116 0 150 3 147 13 -4 9 -45 13 -151
15 -126 2 -147 0 -147 -13z"/>
<path d="M850 830 c0 -6 57 -10 150 -10 93 0 150 4 150 10 0 6 -57 10 -150 10
-93 0 -150 -4 -150 -10z"/>
<path d="M850 745 c0 -12 18 -15 100 -15 82 0 100 3 100 15 0 12 -18 15 -100
15 -82 0 -100 -3 -100 -15z"/>
<path d="M854 676 c-3 -8 -4 -31 -2 -52 l3 -39 145 0 145 0 3 44 c2 28 -1 47
-10 52 -7 5 -73 9 -146 9 -104 0 -134 -3 -138 -14z m266 -41 l0 -25 -125 0
c-115 0 -125 2 -125 18 0 10 3 22 7 25 3 4 60 7 125 7 l118 0 0 -25z"/>
<path d="M300 605 l-24 -26 29 -23 c31 -25 50 -25 41 0 -4 12 21 14 150 14
133 0 155 -2 151 -15 -11 -27 15 -28 41 -1 l27 26 -27 26 c-23 24 -57 26 -43
3 4 -5 -56 -9 -149 -9 -134 0 -155 2 -150 15 10 24 -20 18 -46 -10z"/>
</g>
</svg>
