<?xml version="1.0" standalone="no"?>
<!DOCTYPE svg PUBLIC "-//W3C//DTD SVG 20010904//EN"
 "http://www.w3.org/TR/2001/REC-SVG-20010904/DTD/svg10.dtd">
<svg version="1.0" xmlns="http://www.w3.org/2000/svg"
 width="128.000000pt" height="128.000000pt" viewBox="0 0 128.000000 128.000000"
 preserveAspectRatio="xMidYMid meet">

<g transform="translate(0.000000,128.000000) scale(0.100000,-0.100000)"
fill="#000000" stroke="none">
<path d="M285 1251 c-41 -18 -60 -51 -60 -102 l0 -49 -61 0 c-104 0 -98 21
-104 -347 -4 -257 -2 -321 8 -335 18 -22 7 -38 -24 -38 -23 0 -24 -2 -24 -80
0 -78 1 -80 24 -80 34 0 42 -17 20 -41 -17 -19 -16 -21 39 -76 55 -55 57 -56
76 -39 24 22 41 14 41 -20 0 -23 2 -24 80 -24 78 0 80 1 80 24 0 34 17 42 41
20 19 -17 21 -16 76 39 55 55 56 57 39 76 -10 11 -15 25 -11 30 4 7 74 11 201
11 l194 0 0 -81 0 -81 32 27 c18 15 97 84 176 152 l143 124 -26 20 c-25 20
-25 21 -25 184 l0 164 -41 -14 c-84 -30 -119 -10 -119 67 0 73 36 93 119 63
l41 -14 0 114 c0 149 -5 155 -122 155 l-83 0 0 50 c0 41 -5 54 -28 77 -24 24
-35 28 -87 28 -52 0 -63 -4 -87 -28 -23 -22 -28 -36 -28 -76 l0 -49 -70 -4
c-38 -1 -113 -1 -165 0 l-95 4 0 49 c0 66 -33 100 -102 105 -26 2 -57 0 -68
-5z m115 -51 c24 -24 25 -44 6 -98 l-15 -41 112 -3 112 -3 3 -112 3 -112 41
15 c82 29 118 9 118 -64 0 -77 -35 -97 -119 -67 l-41 14 0 -134 0 -135 -42 0
c-37 0 -48 6 -90 47 -46 45 -48 46 -67 29 -24 -22 -41 -13 -41 20 0 23 -2 24
-80 24 -78 0 -80 -1 -80 -24 0 -33 -17 -42 -41 -20 -19 17 -20 16 -49 -11
l-30 -29 2 279 3 280 92 3 92 3 -15 41 c-8 22 -14 49 -14 59 0 33 36 59 80 59
27 0 47 -7 60 -20z m560 0 c24 -24 25 -44 6 -98 l-15 -41 112 -3 112 -3 3 -81
3 -80 -55 0 c-81 1 -101 -22 -101 -114 0 -92 20 -115 100 -114 l55 0 0 -119 0
-119 -47 36 c-27 19 -85 62 -130 96 l-83 60 0 -80 0 -80 -130 0 -130 0 0 103
0 103 55 0 c80 -1 100 22 100 115 0 66 -2 72 -29 96 -26 22 -36 25 -78 20
l-49 -6 3 82 3 82 92 3 92 3 -15 41 c-8 22 -14 49 -14 59 0 33 36 59 80 59 27
0 47 -7 60 -20z m-615 -680 c9 -27 41 -43 72 -35 37 9 76 -29 68 -66 -8 -33 8
-65 35 -74 29 -9 29 -81 0 -90 -27 -9 -43 -41 -35 -72 9 -37 -29 -76 -66 -68
-33 8 -65 -8 -74 -35 -9 -29 -81 -29 -90 0 -9 27 -41 43 -74 35 -37 -8 -75 31
-66 68 8 31 -8 63 -35 72 -29 9 -29 81 0 90 27 9 43 41 35 72 -9 37 29 76 66
68 33 -8 65 8 74 35 5 15 15 20 45 20 30 0 40 -5 45 -20z m813 -124 c23 -16
42 -33 42 -37 0 -4 -53 -53 -117 -109 l-118 -102 -3 56 -3 56 -189 0 -190 0 0
59 c0 58 -1 60 -27 63 -17 2 -28 9 -28 18 0 13 32 15 218 18 l217 2 0 61 0 60
78 -58 c42 -31 96 -70 120 -87z"/>
<path d="M160 840 c-11 -11 -20 -29 -20 -40 0 -26 34 -60 60 -60 26 0 60 34
60 60 0 11 -9 29 -20 40 -11 11 -29 20 -40 20 -11 0 -29 -9 -40 -20z m56 -31
c10 -17 -13 -36 -27 -22 -12 12 -4 33 11 33 5 0 12 -5 16 -11z"/>
<path d="M320 840 c-11 -11 -20 -29 -20 -40 0 -26 34 -60 60 -60 26 0 60 34
60 60 0 11 -9 29 -20 40 -11 11 -29 20 -40 20 -11 0 -29 -9 -40 -20z m56 -31
c10 -17 -13 -36 -27 -22 -12 12 -4 33 11 33 5 0 12 -5 16 -11z"/>
<path d="M480 840 c-11 -11 -20 -29 -20 -40 0 -26 34 -60 60 -60 26 0 60 34
60 60 0 11 -9 29 -20 40 -11 11 -29 20 -40 20 -11 0 -29 -9 -40 -20z m56 -31
c10 -17 -13 -36 -27 -22 -12 12 -4 33 11 33 5 0 12 -5 16 -11z"/>
<path d="M235 446 c-101 -44 -125 -178 -46 -257 65 -65 157 -65 222 0 124 124
-15 327 -176 257z m149 -65 c26 -27 31 -39 31 -81 0 -43 -5 -54 -33 -82 -47
-48 -117 -48 -164 0 -28 28 -33 39 -33 81 0 52 25 92 70 112 37 16 96 3 129
-30z"/>
<path d="M245 355 c-50 -49 -15 -135 55 -135 19 0 40 9 55 25 50 49 15 135
-55 135 -19 0 -40 -9 -55 -25z m85 -30 c26 -32 -13 -81 -47 -59 -23 14 -28 41
-13 59 16 19 44 19 60 0z"/>
</g>
</svg>
