<?xml version="1.0" standalone="no"?>
<!DOCTYPE svg PUBLIC "-//W3C//DTD SVG 20010904//EN"
 "http://www.w3.org/TR/2001/REC-SVG-20010904/DTD/svg10.dtd">
<svg version="1.0" xmlns="http://www.w3.org/2000/svg"
 width="128.000000pt" height="128.000000pt" viewBox="0 0 128.000000 128.000000"
 preserveAspectRatio="xMidYMid meet">

<g transform="translate(0.000000,128.000000) scale(0.100000,-0.100000)"
fill="#000000" stroke="none">
<path d="M540 1254 c-6 -14 -10 -42 -10 -63 0 -37 -1 -38 -70 -65 l-70 -27
-44 35 c-24 20 -47 36 -52 36 -15 0 -134 -124 -134 -139 0 -8 16 -33 35 -57
l35 -42 -25 -54 c-14 -29 -25 -58 -25 -65 0 -6 -27 -15 -62 -20 l-63 -8 -3
-102 -3 -101 61 -9 61 -8 29 -67 28 -67 -35 -40 c-19 -23 -33 -48 -31 -57 4
-24 94 -97 111 -91 8 3 44 49 81 102 l67 96 -34 47 c-120 163 -72 380 104 477
49 27 63 30 144 30 74 0 98 -4 137 -23 187 -92 239 -322 112 -489 -14 -18 -24
-39 -22 -46 7 -26 134 -196 147 -197 18 0 111 79 111 95 0 7 -16 32 -35 55
-19 23 -35 43 -35 44 0 1 9 20 19 42 11 22 23 52 26 67 6 21 13 27 34 27 14 0
43 3 64 6 l38 7 -3 101 -3 101 -62 8 c-36 5 -63 14 -63 20 0 7 -11 36 -25 66
l-25 54 35 42 c19 24 35 49 35 57 0 15 -120 138 -134 138 -5 0 -28 -16 -52
-36 l-44 -35 -69 27 -68 27 -6 53 c-3 29 -8 58 -12 64 -3 6 -45 10 -96 10 -87
0 -90 -1 -99 -26z m165 -61 c3 -27 7 -54 8 -62 1 -8 20 -19 42 -26 22 -6 59
-21 82 -33 23 -12 47 -22 53 -22 5 0 28 17 51 37 l40 36 47 -46 46 -46 -30
-38 c-46 -58 -47 -61 -26 -96 11 -17 28 -55 37 -84 l17 -52 59 -7 59 -7 0 -62
c0 -69 -6 -75 -78 -75 -26 0 -35 -5 -44 -27 -6 -16 -24 -57 -40 -92 l-28 -64
37 -45 37 -45 -29 -24 -28 -25 -19 24 c-10 12 -34 46 -54 75 l-37 52 31 48
c42 66 66 162 58 233 -14 119 -96 234 -206 288 -49 24 -66 27 -155 27 -120 0
-172 -21 -250 -100 -67 -66 -97 -131 -103 -221 -6 -91 11 -162 53 -225 l34
-49 -51 -74 c-53 -78 -64 -82 -98 -42 -10 14 -7 23 24 60 l36 44 -29 64 c-15
34 -33 75 -39 91 -9 22 -18 27 -44 27 -72 0 -78 6 -78 75 l0 63 59 7 c58 7 58
7 71 48 6 23 23 62 36 86 27 48 28 44 -28 114 l-22 27 45 46 46 45 42 -35 c47
-40 57 -42 86 -23 11 8 43 22 70 32 68 25 75 32 75 75 0 65 5 70 70 70 l59 0
6 -47z"/>
<path d="M542 920 c-48 -29 -72 -75 -72 -138 0 -64 18 -102 65 -138 l35 -26 0
-152 0 -152 -31 -30 c-85 -79 -74 -209 21 -263 58 -32 72 -23 68 41 -3 51 -2
53 22 53 24 0 25 -3 25 -55 0 -65 14 -73 64 -38 93 63 95 216 4 273 l-32 20
-1 156 0 155 31 30 c85 80 74 215 -21 264 -59 30 -73 22 -68 -43 3 -50 2 -52
-22 -52 -24 0 -25 3 -25 55 0 63 -12 71 -63 40z m44 -129 c35 -15 66 -14 93 5
18 13 22 24 19 51 -6 46 21 41 46 -10 26 -54 15 -102 -35 -149 l-39 -37 0
-180 0 -180 30 -16 c67 -35 89 -121 47 -185 l-22 -35 -3 41 c-2 33 -8 44 -28
53 -32 14 -56 14 -89 -1 -20 -9 -25 -18 -25 -50 0 -44 -13 -49 -35 -14 -40 60
-24 141 35 185 l30 22 0 178 0 179 -34 20 c-53 31 -69 63 -64 122 3 30 13 59
24 71 l19 21 3 -39 c2 -32 8 -43 28 -52z"/>
</g>
</svg>
