<?xml version="1.0" standalone="no"?>
<!DOCTYPE svg PUBLIC "-//W3C//DTD SVG 20010904//EN"
 "http://www.w3.org/TR/2001/REC-SVG-20010904/DTD/svg10.dtd">
<svg version="1.0" xmlns="http://www.w3.org/2000/svg"
 width="512.000000pt" height="512.000000pt" viewBox="0 0 512.000000 512.000000"
 preserveAspectRatio="xMidYMid meet">

<g transform="translate(0.000000,512.000000) scale(0.100000,-0.100000)"
fill="#000000" stroke="none">
<path d="M2470 5104 c-64 -28 -101 -75 -114 -144 -6 -33 -11 -37 -93 -72 -74
-32 -90 -35 -103 -24 -55 49 -137 59 -205 26 -24 -12 -88 -67 -147 -128 -85
-87 -107 -116 -117 -154 -16 -58 -9 -104 25 -153 l25 -37 -35 -87 c-33 -81
-37 -86 -71 -93 -78 -17 -135 -67 -155 -136 -13 -48 -13 -286 1 -335 20 -72
88 -128 167 -139 19 -2 30 -19 58 -89 l35 -87 -25 -36 c-31 -46 -40 -102 -26
-156 9 -34 34 -66 118 -153 59 -60 124 -118 144 -128 63 -32 157 -22 203 21
20 19 22 19 108 -18 84 -36 88 -38 93 -74 8 -49 34 -90 80 -124 l37 -29 187 0
187 0 37 29 c46 34 72 75 80 124 5 36 9 38 92 74 l87 37 35 -27 c47 -36 132
-42 188 -14 21 11 87 69 146 129 106 109 128 145 128 211 0 28 -25 90 -47 114
-14 16 -12 24 20 105 29 72 40 89 59 91 79 11 147 67 167 139 14 49 14 287 1
335 -20 69 -77 119 -155 136 -34 7 -38 12 -72 95 -32 81 -34 89 -20 105 22 24
47 86 47 114 0 65 -22 102 -127 209 -60 61 -124 117 -148 129 -68 33 -150 23
-205 -26 -13 -11 -29 -8 -103 24 -82 35 -87 39 -93 72 -13 70 -51 117 -116
145 -52 21 -327 21 -378 -1z m300 -243 c0 -76 23 -101 117 -126 37 -10 112
-41 166 -67 89 -45 101 -48 130 -38 17 6 46 25 64 42 l33 32 75 -74 75 -74
-35 -36 c-56 -58 -56 -84 3 -203 28 -56 58 -129 66 -162 21 -84 57 -115 131
-115 l55 0 0 -104 0 -104 -60 -4 c-79 -6 -101 -27 -129 -124 -12 -41 -42 -113
-66 -160 -57 -108 -57 -131 -3 -190 l41 -45 -68 -70 c-38 -38 -74 -69 -79 -69
-5 0 -26 16 -47 35 -53 48 -86 46 -196 -9 -48 -24 -120 -53 -160 -65 -91 -27
-113 -52 -113 -127 l0 -54 -110 0 -110 0 0 58 c0 51 -4 62 -27 84 -16 14 -57
33 -93 43 -36 9 -104 37 -152 61 -110 55 -144 57 -197 9 -21 -19 -42 -35 -47
-35 -5 0 -41 31 -79 69 l-68 70 41 45 c29 31 42 54 42 74 0 16 -22 72 -49 126
-28 53 -55 122 -62 154 -9 40 -22 67 -45 90 -29 28 -38 32 -88 32 l-56 0 0
105 0 105 55 0 c74 0 110 31 131 115 8 33 38 106 66 162 59 119 59 145 3 203
l-35 36 75 74 75 74 33 -32 c18 -17 47 -36 64 -42 29 -10 41 -7 130 38 54 26
129 57 166 67 94 25 117 50 117 126 l0 59 110 0 110 0 0 -59z"/>
<path d="M2522 4565 c-285 -65 -492 -325 -492 -619 0 -230 133 -448 336 -554
112 -58 193 -75 324 -70 175 8 326 79 440 206 59 66 123 189 146 282 21 85 15
239 -15 330 -60 189 -223 352 -411 411 -85 27 -242 34 -328 14z m243 -200 c83
-22 147 -60 206 -122 179 -189 151 -493 -58 -643 -243 -174 -591 -52 -668 234
-86 316 205 613 520 531z"/>
<path d="M794 4671 c-41 -17 -66 -62 -61 -105 5 -33 20 -54 104 -138 l98 -98
-268 0 c-165 0 -276 -4 -288 -10 -41 -22 -49 -60 -49 -230 0 -207 14 -240 105
-240 27 0 44 8 66 29 29 29 29 31 29 140 l0 111 197 0 197 0 -91 -93 c-51 -51
-95 -105 -98 -120 -19 -75 47 -141 122 -122 28 7 333 300 384 369 19 26 29 51
29 74 0 33 -15 51 -197 234 -204 204 -227 220 -279 199z"/>
<path d="M4079 4301 c-40 -40 -40 -89 0 -133 l29 -33 236 -3 236 -3 0 -560 c0
-307 -3 -559 -7 -559 -4 0 -50 43 -104 95 -88 87 -99 95 -135 95 -64 -1 -111
-54 -100 -114 5 -24 52 -77 204 -229 189 -188 200 -197 237 -197 37 0 48 9
237 198 109 108 201 207 204 220 16 61 -32 122 -97 122 -39 0 -47 -6 -140 -97
l-99 -97 0 616 c0 413 -4 625 -11 646 -21 61 -27 62 -359 62 l-302 0 -29 -29z"/>
<path d="M400 3589 c-61 -25 -84 -82 -56 -137 20 -38 44 -52 91 -52 50 0 95
44 95 94 0 66 -72 119 -130 95z"/>
<path d="M382 3130 c-18 -11 -37 -32 -43 -47 -6 -17 -9 -96 -7 -196 l3 -169
34 -30 c29 -26 39 -30 75 -25 27 4 49 15 63 32 22 25 23 34 23 205 l0 180 -27
30 c-37 40 -78 47 -121 20z"/>
<path d="M1113 2789 c-64 -25 -131 -88 -163 -154 -18 -37 -26 -71 -28 -130
l-4 -80 -198 -118 -198 -118 -58 33 c-55 31 -65 33 -149 33 -74 0 -97 -4 -133
-23 -229 -122 -243 -427 -25 -554 l58 -34 3 -237 2 -236 -48 -25 c-227 -115
-226 -439 2 -556 59 -30 77 -34 140 -34 61 0 83 4 138 32 36 17 69 32 73 32 3
0 93 -52 200 -116 l193 -115 4 -82 c5 -98 35 -163 98 -221 158 -143 394 -100
490 88 30 59 34 77 34 140 l0 72 201 120 200 120 44 -27 c125 -79 292 -53 395
62 112 124 104 314 -19 433 -25 25 -61 51 -80 58 l-35 12 0 241 0 240 46 24
c163 87 216 299 113 455 -93 140 -292 177 -440 80 -25 -16 -27 -15 -224 104
l-198 120 -2 73 c-3 127 -66 227 -180 281 -75 35 -171 38 -252 7z m190 -200
c82 -64 37 -199 -67 -202 -68 -2 -116 47 -116 118 0 29 8 45 34 71 29 29 41
34 79 34 30 0 53 -7 70 -21z m-125 -399 c68 -13 154 3 213 40 l47 28 201 -120
201 -121 0 -71 -1 -71 -200 -119 c-185 -110 -203 -119 -222 -106 -69 44 -103
54 -182 54 -73 1 -88 -3 -147 -32 l-66 -34 -197 119 -197 118 -1 70 -2 71 200
121 199 121 51 -29 c28 -16 75 -33 103 -39z m-808 -145 c16 -9 36 -29 45 -45
59 -115 -88 -225 -179 -134 -92 93 18 239 134 179z m1856 -19 c29 -29 34 -41
34 -81 0 -38 -5 -52 -29 -75 -51 -52 -111 -52 -162 0 -24 23 -29 37 -29 75 0
40 5 52 34 81 28 28 42 34 76 34 34 0 48 -6 76 -34z m-176 -621 l0 -241 -35
-12 c-49 -18 -122 -93 -150 -155 -19 -40 -25 -69 -25 -127 l-1 -75 -200 -119
-201 -120 -26 18 c-15 9 -39 22 -54 27 l-28 11 0 241 1 242 37 17 c64 30 110
76 144 146 28 57 33 77 33 137 l-1 71 200 120 200 120 53 -31 52 -30 1 -240z
m-1325 179 l193 -116 4 -82 c3 -61 11 -93 30 -131 30 -57 97 -124 146 -144
l32 -13 0 -242 0 -241 -54 -29 -53 -29 -197 120 -197 119 -3 75 c-3 89 -27
148 -85 212 -22 24 -59 52 -81 62 l-40 18 0 243 0 243 43 24 c23 14 48 25 56
26 7 1 100 -51 206 -115z m586 -110 c54 -52 44 -139 -20 -177 -74 -43 -171 8
-171 91 0 106 116 158 191 86z m-947 -504 c14 -5 35 -24 46 -42 70 -116 -80
-237 -173 -140 -88 92 7 228 127 182z m1862 -24 c29 -29 34 -41 34 -79 0 -54
-26 -91 -75 -107 -75 -25 -145 27 -145 107 0 38 5 50 34 79 28 28 42 34 76 34
34 0 48 -6 76 -34z m-912 -555 c66 -66 25 -176 -70 -187 -70 -9 -124 42 -124
117 0 99 121 142 194 70z"/>
<path d="M3576 2301 c-300 -181 -484 -297 -492 -312 -18 -33 -20 -1134 -2
-1174 16 -36 962 -605 1006 -605 40 0 974 559 1000 598 16 24 17 74 17 593 0
552 -1 568 -20 594 -11 15 -230 153 -492 311 -363 218 -480 284 -505 284 -25
0 -147 -69 -512 -289z m870 -141 c192 -116 350 -214 352 -219 3 -10 -703 -434
-716 -430 -21 9 -711 424 -711 429 0 7 702 429 715 430 7 0 169 -95 360 -210z
m-791 -627 l330 -199 3 -423 c1 -238 -2 -421 -7 -419 -4 1 -166 98 -359 213
l-351 210 -1 423 0 423 28 -15 c15 -8 176 -104 357 -213z m1253 -195 l-3 -422
-330 -199 c-181 -109 -342 -205 -357 -213 l-28 -15 0 423 1 423 352 212 c194
116 355 212 360 212 4 1 6 -189 5 -421z"/>
</g>
</svg>
